# xmcd
#
# Track frame offsets:
#	150
#	12995
#	26275
#	41295
#	56377
#	69622
#	85397
#	104795
#	120140
#	132317
#	145867
#	161417
#	178375
#	194662
#	211712
#	226745
#	238202
#	253950
#	268555
#	279450
#	293310
#	304207
#	322450
#	337847
#
# Disc length: 4745
#
# Revision: 3
# Processed by: cddbd v1.5.1PL0 Copyright (c) Steve Scherf et al.
# Submitted via: FreeRIP 2.90 
# Normalized: r2:TSWAP
#
DISCID=5e128718
DTITLE=Various Artist - Complete Stax/Volt Singles 1972-1975 Disc 1
DYEAR=1900
DGENRE=
TTITLE0=Eddie Floyd - Yum Yum Yum (I Want Some)
TTITLE1=Jean Knight - Carry On
TTITLE2=Isaac Hayes - Do Your Thing
TTITLE3=Frederick Knight - I've Been Lonely For So Long
TTITLE4=Annette Thomas - Nothing Is Everlasting
TTITLE5=The Soul Children - Hearsay
TTITLE6=Albert King - Angel Of Mercy
TTITLE7=The Dramatics - In The Rain
TTITLE8=Lee Sain - She's My Old Lady Too
TTITLE9=The Temprees - Explain It To Her Mama
TTITLE10=Sons Of Slum - Right On
TTITLE11=Johnnie Taylor - Doing My Own Thing (Part 1)
TTITLE12=The Emotions - My Honey And Me
TTITLE13=Isaac Hayes - Let's Stay Together (Instrumental)
TTITLE14=Hot Sauce - Bring It Home (And Give It To Me)
TTITLE15=Black Society - Look Around You
TTITLE16=The Nightingales - Don't Do It/I'm With You
TTITLE17=The Staple Singers - I'll Take You There
TTITLE18=The Leaders - Which Way
TTITLE19=Veda Brown - Living A Life Without Love
TTITLE20=Harvey Scales - What's Good For You (Don't Have To be Good To You)
TTITLE21=The Mad Lads - Let Me Repair Your Heart
TTITLE22=Eric Mercury - What's Usual Seems Natur'l
TTITLE23=Major Lance - I Wanna Make Up (Before We Break Up)
EXTD=
EXTT0=
EXTT1=
EXTT2=
EXTT3=
EXTT4=
EXTT5=
EXTT6=
EXTT7=
EXTT8=
EXTT9=
EXTT10=
EXTT11=
EXTT12=
EXTT13=
EXTT14=
EXTT15=
EXTT16=
EXTT17=
EXTT18=
EXTT19=
EXTT20=
EXTT21=
EXTT22=
EXTT23=
PLAYORDER=
